<?xml version="1.0" encoding="UTF-8" standalone="no"?>
<!-- Created with Inkscape (http://www.inkscape.org/) -->

<svg
   xmlns:dc="http://purl.org/dc/elements/1.1/"
   xmlns:cc="http://creativecommons.org/ns#"
   xmlns:rdf="http://www.w3.org/1999/02/22-rdf-syntax-ns#"
   xmlns:svg="http://www.w3.org/2000/svg"
   xmlns="http://www.w3.org/2000/svg"
   xmlns:xlink="http://www.w3.org/1999/xlink"
   xmlns:sodipodi="http://sodipodi.sourceforge.net/DTD/sodipodi-0.dtd"
   xmlns:inkscape="http://www.inkscape.org/namespaces/inkscape"
   version="1.1"
   width="1500"
   height="2000"
   id="svg3051"
   inkscape:version="0.48.4 r9939"
   sodipodi:docname="これ.svg">
  <sodipodi:namedview
     pagecolor="#ffffff"
     bordercolor="#666666"
     borderopacity="1"
     objecttolerance="10"
     gridtolerance="10"
     guidetolerance="10"
     inkscape:pageopacity="0"
     inkscape:pageshadow="2"
     inkscape:window-width="1680"
     inkscape:window-height="1028"
     id="namedview77"
     showgrid="false"
     showguides="true"
     inkscape:guide-bbox="true"
     inkscape:zoom="0.35355339"
     inkscape:cx="168.30495"
     inkscape:cy="1152.3913"
     inkscape:window-x="-8"
     inkscape:window-y="-8"
     inkscape:window-maximized="1"
     inkscape:current-layer="svg3051" />
  <defs
     id="defs3053">
    <linearGradient
       id="linearGradient4317-5">
      <stop
         id="stop4319-5"
         style="stop-color:#d35f8d;stop-opacity:1"
         offset="0" />
      <stop
         id="stop4329-1"
         style="stop-color:#663f4e;stop-opacity:1"
         offset="1" />
    </linearGradient>
    <linearGradient
       id="linearGradient3515">
      <stop
         id="stop3517"
         style="stop-color:#d35f8d;stop-opacity:1"
         offset="0" />
      <stop
         id="stop3519"
         style="stop-color:#663f4e;stop-opacity:1"
         offset="1" />
    </linearGradient>
  </defs>
  <metadata
     id="metadata3056">
    <rdf:RDF>
      <cc:Work
         rdf:about="">
        <dc:format>image/svg+xml</dc:format>
        <dc:type
           rdf:resource="http://purl.org/dc/dcmitype/StillImage" />
        <dc:title></dc:title>
      </cc:Work>
    </rdf:RDF>
  </metadata>
  <g
     transform="translate(-30.006924,933.0435)"
     id="layer1">
    <path
       d="m 701.51373,-298.20862 c 265.31116,124.92807 301.04697,220.00195 301.04697,220.00195 l 102.0715,-131.13559 -225.38575,-171.29313 z"
       id="path4309"
       style="fill:#000000;fill-opacity:1;stroke:none"
       inkscape:connector-curvature="0" />
    <path
       d="M 977.04963,180.34088 C 967.54395,93.460834 977.81253,0.3694 1008.5488,-196.46308 L 772.33296,-83.64143 c -137.44651,291.11166 -167.84658,505.4679 -60.44173,708.7905 78.42195,106.05885 196.07565,72.07005 196.07565,72.07005"
       id="path4265"
       style="fill:#5f8dd3;fill-opacity:1;stroke:none"
       inkscape:connector-curvature="0" />
    <path
       d="m 785.71429,439.50504 a 307.14285,307.14285 0 1 1 -614.2857,0 307.14285,307.14285 0 1 1 614.2857,0 z"
       transform="matrix(0.95395805,0,0,0.97073098,273.9548,-713.90247)"
       id="path3059"
       style="fill:#5f8dd3;fill-opacity:1;fill-rule:nonzero;stroke:none"
       inkscape:connector-curvature="0" />
    <path
       d="M 528.92245,-311.80258 C 479.13884,-168.33149 373.80507,-132.13411 284.53734,-148.75139 270.02775,17.75832 390.20322,54.298257 448.68975,99.186046 648.88049,0.70821 865.71028,63.234223 967.97136,-113.88487"
       id="path3063"
       style="fill:#5f8dd3;fill-opacity:1;stroke:none"
       inkscape:connector-curvature="0" />
    <path
       d="m 741.07293,-371.25074 22.22347,-0.87152 -16.99441,-16.12291 z"
       id="path3068"
       style="fill:#374845;fill-opacity:1;stroke:none"
       inkscape:connector-curvature="0" />
    <path
       d="m 120.30484,446.29755 a 112.10224,181.38524 0 1 1 -224.20448,0 112.10224,181.38524 0 1 1 224.20448,0 z"
       transform="matrix(0.11907193,0.84272792,-0.67468318,0.10643112,1040.3207,-332.83569)"
       id="path3070"
       style="fill:#f9f9f9;fill-opacity:1;fill-rule:nonzero;stroke:none"
       inkscape:connector-curvature="0" />
    <path
       d="m -53.316914,303.77838 a 62.886623,101.75269 0 1 1 -125.773246,0 62.886623,101.75269 0 1 1 125.773246,0 z"
       transform="matrix(0.9015428,0,0,0.9015428,854.65074,-526.10083)"
       id="path3052"
       style="fill:#ff6600;fill-opacity:1;fill-rule:nonzero;stroke:none"
       inkscape:connector-curvature="0" />
    <path
       d="m 329.63995,533.276 a 44.225887,71.558983 0 1 1 -88.45177,0 44.225887,71.558983 0 1 1 88.45177,0 z"
       transform="matrix(0.9015428,0,0,0.9015428,494.43594,-736.96089)"
       id="path3054"
       style="fill:#241c1c;fill-opacity:1;fill-rule:nonzero;stroke:none"
       inkscape:connector-curvature="0" />
    <path
       d="m 692.9193,-186.38659 c 102.91372,18.4875 150.98121,-50.96823 150.98121,-50.96823 19.10374,74.56622 -83.19372,101.68121 -83.19372,101.68121 z"
       id="path3078"
       style="fill:#5f8dd3;fill-opacity:1;stroke:none"
       inkscape:connector-curvature="0" />
    <path
       d="m 809.92212,-206.79084 c 94.80922,-84.43063 -5.77685,-167.56836 -84.8204,-171.79296 153.82302,-17.31638 201.61824,133.62339 84.8204,171.79296 z"
       id="path3072"
       style="fill:#241c1c;fill-opacity:1;stroke:none"
       inkscape:connector-curvature="0" />
    <path
       d="m 676.64532,-329.18133 c 41.12169,-48.83658 143.38359,-49.93185 143.38359,-49.93185 -120.55378,-52.85368 -143.38359,49.93185 -143.38359,49.93185 z"
       id="path3076"
       style="fill:#241c1c;fill-opacity:1;stroke:none"
       inkscape:connector-curvature="0" />
    <path
       d="m 1004.8453,-84.10169 c 99.4018,-142.05933 -277.5621,-202.79026 -302.1888,-388.44466 l 154.69534,-177.26396 212.50656,122.35224 -10.3034,95.30595 c -1.2879,100.45763 175.5153,246.52587 26.8364,370.06339"
       id="path4263"
       style="fill:#f9dc76;fill-opacity:1;stroke:none"
       inkscape:connector-curvature="0" />
    <path
       d="m 452.46458,-191.95536 c 47.81029,-55.08429 57.87033,-78.8575 57.87033,-78.8575 22.59999,-107.32512 -25.78771,-140.74935 -60.30873,-100.35107 -38.61811,103.1532 2.4384,179.20857 2.4384,179.20857 z"
       id="path3847"
       style="fill:#f9f9f9;fill-opacity:1;stroke:none"
       inkscape:connector-curvature="0" />
    <path
       d="m 437.8501,-261.51714 c 2.73209,48.72223 22.76739,76.49844 22.76739,76.49844 -20.11534,-12.71253 -30.07087,-57.71981 -22.76739,-76.49844 z"
       id="path4351"
       style="fill:#241c1c;fill-opacity:1;stroke:none"
       inkscape:connector-curvature="0" />
    <path
       d="m -125.71428,248.07646 a 52.857145,101.42857 0 1 1 -105.71429,0 52.857145,101.42857 0 1 1 105.71429,0 z"
       transform="matrix(0.39654843,0,0,0.61584262,548.58188,-410.41526)"
       id="path4325"
       style="fill:#ff6600;fill-opacity:1;fill-rule:nonzero;stroke:none"
       inkscape:connector-curvature="0" />
    <path
       d="m 422.14285,566.64789 a 35.71429,71.42858 0 1 1 -71.42858,0 35.71429,71.42858 0 1 1 71.42858,0 z"
       transform="matrix(0.43127691,-0.00819822,0.00311866,0.61622177,316.96665,-599.45515)"
       id="path4327"
       style="fill:#241c1c;fill-opacity:1;fill-rule:nonzero;stroke:none"
       inkscape:connector-curvature="0" />
    <path
       d="m 522.40473,-305.8574 c -22.15138,64.49735 -49.20899,92.61125 -74.07409,117.14149 -3.72284,26.05986 115.96153,-2.83171 115.37583,-0.0197 -1.59745,7.66951 -41.30174,-117.12183 -41.30174,-117.12183 z"
       id="path4345"
       style="fill:#5f8dd3;fill-opacity:1;stroke:none"
       inkscape:connector-curvature="0" />
    <path
       d="m 665.59286,-196.68233 c -95.45525,-65.81181 25.57762,-168.95167 24.90525,-170.29642 -136.95043,75.02774 -77.0741,164.38847 -24.90525,170.29642 z"
       id="path3074"
       style="fill:#241c1c;fill-opacity:1;stroke:none"
       inkscape:connector-curvature="0" />
    <path
       d="m 399.30435,-444.77372 c -177.39749,46.36505 -266.77332,105.6093 -266.77332,122.35224 113.12907,171.90237 571.37941,73.99714 668.79074,-126.77364 4.03368,-8.31367 9.70748,-12.12899 -4.18515,-26.32982"
       id="path3853"
       style="fill:#2a1d16;fill-opacity:1;stroke:none"
       inkscape:connector-curvature="0" />
    <g
       transform="matrix(0.9015428,0,0,0.9015428,272.63694,-677.69828)"
       id="g3935">
      <path
         d="m 99.53125,269.71875 c -10.99856,3.20174 -21.67931,6.42776 -31.96875,9.6875 l 63.0625,6.65625 2.53125,0.25 2.03125,-1.5 38.9375,-28.875 -24.1875,1.75 -20.46875,15.1875 -29.9375,-3.15625 z"
         id="path3870"
         style="fill:#000000;fill-opacity:1;stroke:none"
         inkscape:connector-curvature="0" />
      <path
         d="M -139.375,414.53125 -130.9375,371.5 -58,364.875 l 2.3125,-0.21875 1.625,-1.625 41.21875,-40.21875 37.28125,4.65625 4.25,0.53125 2.15625,-3.6875 L 55,283.53125 c -6.37666,2.09061 -12.7562,4.18054 -18.84375,6.28125 L 21.8125,314.03125 -14.34375,309.5 -16.25,309.28125 c -0.8234,0.33109 -1.55889,0.63805 -2.375,0.96875 l -1.0625,1.0625 -41.75,40.8125 -52.84375,4.8125 c -14.25846,8.75292 -24.72752,16.55308 -31.5625,23.03125 l -4.25,21.59375 c 3.34784,4.50942 6.92895,8.81826 10.71875,12.96875 z"
         id="path3859"
         style="fill:#000000;fill-opacity:1;stroke:none"
         inkscape:connector-curvature="0" />
      <path
         d="m 430,237.40625 9.5625,50.3125 -72.1875,42.875 -6.34375,3.75 4.5,5.8125 35,45.0625 -56.46875,28.5625 -6.0625,3.0625 3.3125,5.90625 9.9375,17.65625 c 4.07135,-1.61505 8.16367,-3.19141 12.1875,-4.875 L 356,422.3125 413.4375,393.25 l 7.03125,-3.5625 -4.84375,-6.21875 -35.28125,-45.4375 69.78125,-41.4375 3.90625,-2.34375 -0.84375,-4.46875 L 443.0625,236.4375 430,237.40625 z"
         id="path3882"
         style="fill:#000000;fill-opacity:1;stroke:none"
         inkscape:connector-curvature="0" />
      <path
         d="m 220.46875,252.59375 -38.40625,52.3125 -80.1875,12.46875 -3.03125,0.46875 -1.59375,2.625 -20.96875,35.40625 -66.28125,0 -5.375,0 -1,5.25 -6.34375,32.90625 L -59.90625,406 -64,406.84375 l -0.90625,4.0625 -11.125,49.03125 c 3.949137,1.86639 7.981449,3.64787 12.09375,5.34375 l 10.8125,-47.40625 57.3125,-12 4.25,-0.90625 0.8125,-4.25 6.125,-31.84375 64.625,0 3.71875,0 1.875,-3.1875 21.28125,-35.9375 79.84375,-12.40625 2.65625,-0.40625 1.59375,-2.15625 46.5,-63.4375 -17,1.25 z"
         id="path3885"
         style="fill:#000000;fill-opacity:1;stroke:none"
         inkscape:connector-curvature="0" />
      <path
         d="m 293.34375,247.3125 -39.125,73.15625 -71.375,29.53125 -3.09375,1.28125 -0.75,3.25 -8.96875,38.84375 -58.84375,0.40625 -6.34375,0.0625 -0.125,6.34375 -0.8125,48.90625 -61.625,14.625 -10.75,2.53125 7.4375,8.15625 14.96875,16.40625 c 6.07659,0.4141 12.21778,0.70284 18.40625,0.90625 l -16.3125,-17.90625 55.78125,-13.21875 4.9375,-1.15625 0.0625,-5.0625 0.8125,-47.625 57.625,-0.40625 5.15625,-0.0625 1.15625,-5 9.34375,-40.5625 70.4375,-29.125 2.15625,-0.90625 1.09375,-2.0625 42.9375,-80.28125 -3.40625,-1.8125 -10.78125,0.78125 z"
         id="path3880"
         style="fill:#000000;fill-opacity:1;stroke:none"
         inkscape:connector-curvature="0" />
      <path
         d="M 341.4375,243.8125 354,302.78125 l -65,24.25 -4.78125,1.78125 0.59375,5.09375 8.28125,69.03125 -71.625,27.15625 -5.78125,2.21875 1.9375,5.875 10.4375,31.8125 -11.09375,9.59375 c 8.70775,-1.67534 17.40988,-3.47493 26.09375,-5.46875 l -1.3125,-4.03125 -9.84375,-30.03125 70.53125,-26.75 4.75,-1.8125 -0.59375,-5.03125 -8.25,-69.03125 65.4375,-24.4375 5.25,-1.96875 -1.15625,-5.5 -13.34375,-62.65625 -13.09375,0.9375 z"
         id="path3873"
         style="fill:#000000;fill-opacity:1;stroke:none"
         inkscape:connector-curvature="0" />
      <path
         d="m 547.4375,228.875 -47.65625,38.46875 -5.15625,4.15625 4.25,5.0625 31.84375,38.0625 -74.6875,30.84375 -6.53125,2.71875 3.25,6.28125 13.6875,26.5 c 3.64893,-2.43858 7.26748,-4.89996 10.8125,-7.40625 l -9.6875,-18.78125 63.78125,-26.3125 c 5.15569,-5.14545 10.01501,-10.41332 14.71875,-15.75 l -32.96875,-39.4375 52.21875,-42.15625 2.875,-2.3125 -0.21875,-1.4375 -20.53125,1.5 z"
         id="path3853-1"
         style="fill:#000000;fill-opacity:1;stroke:none"
         inkscape:connector-curvature="0" />
    </g>
    <path
       d="m 602.61183,-768.88906 c -56.81813,-47.95279 16.93855,-88.96885 32.36447,-28.76243 19.36352,43.8295 51.95823,11.49748 51.94033,1.1664 6.70359,-27.8669 -30.13584,-14.411 -13.80721,-4.16732 -3.299,15.57654 -21.74998,4.93983 -25.54076,-2.77306 -28.56594,-101.66833 -133.55565,-3.48514 -55.0103,40.50759"
       id="path3009"
       style="fill:#4a6052;fill-opacity:1;stroke:none"
       inkscape:connector-curvature="0" />
    <path
       d="m 714.69488,-706.09896 c -38.78182,-35.97331 -77.28876,-122.22611 -79.33932,-135.62799 28.78347,24.29098 74.68169,107.10678 86.86661,132.56807 z"
       id="path3003"
       style="fill:#97aea0;fill-opacity:1;stroke:none"
       inkscape:connector-curvature="0" />
    <path
       d="m 392.4847,-485.4542 c -97.64897,-53.96715 -126.94587,-242.29658 -126.94587,-242.29658 86.13008,-225.00882 426.10803,1.72739 686.71017,17.88667 174.2496,59.79622 168.2912,312.22819 115.4782,271.01481 -51.4588,-24.47045 -118.94109,-44.6548 -167.69154,-39.50312 -377.33182,21.56359 -358.02658,46.26892 -507.55096,-7.10178 z"
       id="path3851"
       style="fill:#2a1d16;fill-opacity:1;stroke:none"
       inkscape:connector-curvature="0" />
    <path
       d="m 373.79707,-822.00145 -55.52939,139.68279 -1.66222,3.60617 3.01453,2.56376 39.58336,41.35827 -9.53462,59.46158 -0.76068,2.78915 1.91578,2.14117 31.17165,38.66572 -16.99417,26.15732 c 6.88551,6.49182 18.18089,16.38756 22.54429,15.9898 l -11.91727,-13.41045 17.38287,-26.34195 2.22569,-3.40896 -2.70463,-3.01453 -35.21651,-39.18894 12.51695,-62.83029 -40.35208,-43.74897 56.82536,-142.52829 c -4.20943,0.61903 -8.44929,1.18714 -12.50891,2.05665 z"
       id="path3851-7"
       style="fill:#000000;fill-opacity:1;stroke:none"
       inkscape:connector-curvature="0" />
    <path
       d="m 285.06132,-648.70802 25.38407,29.94812 -2.93001,28.42677 c 2.38087,5.1704 4.87269,10.28598 7.49407,15.38258 l 4.62041,-44.76724 0.19721,-1.91578 -1.23962,-1.465 -39.69606,-46.79571 c 1.91229,6.87759 3.77203,13.64365 6.16993,21.18626 z"
       id="path3871"
       style="fill:#000000;fill-opacity:1;stroke:none"
       inkscape:connector-curvature="0" />
    <path
       d="m 306.64201,-790.05303 -36.37162,86.26638 c 0.95309,4.33102 2.26941,9.59227 3.54982,14.81911 l 47.21831,-112.0167 c -4.9847,3.31364 -9.84087,6.87335 -14.39651,10.93121 z"
       id="path3864"
       style="fill:#000000;fill-opacity:1;stroke:none"
       inkscape:connector-curvature="0" />
    <path
       d="m 570.70953,-802.22386 -73.7293,108.94582 -3.52165,5.24021 5.24021,3.54983 35.69547,24.03175 -23.13021,47.97898 -1.46501,3.04271 1.69039,2.90184 34.93479,59.24826 -23.46829,41.7527 -2.05664,3.63435 2.56376,3.32444 34.62488,44.68271 c 2.72272,-0.0518 5.51323,-0.1563 8.31109,-0.25356 l 4.64858,-3.60617 -35.04747,-45.24618 23.18655,-41.27375 1.80309,-3.1554 -1.85943,-3.12723 -35.04748,-59.50182 24.05992,-49.83842 2.36655,-4.93031 -4.53588,-3.04271 -34.99113,-23.58098 72.60236,-107.28359 c -4.29944,-1.16361 -8.61406,-2.3783 -12.87515,-3.49348 z"
       id="path3979"
       style="fill:#000000;fill-opacity:1;stroke:none"
       inkscape:connector-curvature="0" />
    <path
       d="m 466.13056,-823.60732 -76.8847,113.31266 -2.50741,3.69069 2.64828,3.60617 49.41582,66.74234 -25.38407,42.54155 -2.3102,3.83156 2.90184,3.4653 38.65365,45.95051 -12.90334,34.48401 -0.92971,2.50742 1.12693,2.39472 16.9321,35.72363 c 5.29533,1.35025 10.56456,2.6184 15.69248,3.71887 l -20.05933,-42.40069 13.24141,-35.47007 1.29597,-3.46531 -2.36655,-2.81732 -38.14653,-45.3307 25.27137,-42.25981 2.14116,-3.60618 -2.47924,-3.38078 -49.27495,-66.54513 77.87076,-114.83401 c -4.69894,-0.7031 -9.3384,-1.2977 -13.94574,-1.85943 z"
       id="path3851-4"
       style="fill:#000000;fill-opacity:1;stroke:none"
       inkscape:connector-curvature="0" />
    <path
       d="m 681.00765,-770.64169 -73.70112,71.58814 -5.1557,5.01483 5.35291,4.81762 38.40009,34.37132 -36.79422,63.86867 -2.25385,3.94425 2.81732,3.578 36.42796,46.17589 -16.19959,41.89357 -0.70434,1.80309 0.36626,1.91577 5.94454,29.9763 13.18507,-2.62011 -5.5783,-28.08869 16.90393,-43.58396 1.38049,-3.578 -2.36655,-3.01453 -36.00537,-45.61243 37.27316,-64.6857 2.70463,-4.70492 -4.05694,-3.66252 -37.10412,-33.18805 73.89833,-71.78534 c -4.94784,-1.48015 -9.80412,-2.94404 -14.73459,-4.4232 z"
       id="path4049"
       style="fill:#000000;fill-opacity:1;stroke:none"
       inkscape:connector-curvature="0" />
    <path
       d="m 782.68478,-741.48241 c -2.54772,2.58278 -5.1484,5.14175 -7.63494,7.74763 -4.4995,4.71545 -8.87053,9.47904 -13.12872,14.28382 -4.2582,4.80479 -8.40398,9.65379 -12.36804,14.56555 -3.96407,4.91177 -7.76487,9.86727 -11.38198,14.90363 -3.61711,5.03637 -7.03772,10.14763 -10.25505,15.32623 l -1.69039,2.7328 1.54953,2.78915 23.01751,40.76664 -33.01901,52.20496 -1.94395,3.09905 2.14117,2.95819 30.96236,43.18954 -22.62309,53.02198 -0.8452,2.02847 0.4226,1.12693 c 3.59197,-0.47023 7.78937,-1.03525 11.49467,-1.52135 l 22.67944,-53.19103 1.21144,-2.78915 -1.77491,-2.47924 -30.62428,-42.73876 32.79362,-51.86689 1.71857,-2.7328 -1.5777,-2.81732 -22.96117,-40.68212 c 3.08528,-4.82578 6.36292,-9.60867 9.83245,-14.34016 3.46953,-4.7315 7.12518,-9.40844 10.93121,-14.05844 3.80602,-4.64998 7.76616,-9.25178 11.86092,-13.83304 4.09475,-4.58126 8.34222,-9.13871 12.67794,-13.66401 3.44307,-3.5936 6.99695,-7.16845 10.56496,-10.73399 -4.00121,-1.04707 -8.02344,-2.21757 -12.02996,-3.29627 z"
       id="path4054"
       style="fill:#000000;fill-opacity:1;stroke:none"
       inkscape:connector-curvature="0" />
    <path
       d="m 1023.1713,-667.52773 -1.634,32.08929 -0.056,1.21145 0.5353,1.07058 22.7921,44.76724 -27.8633,25.91935 -3.2963,3.07088 3.0709,3.29627 33.7515,36.42796 -12.5653,39.30163 -17.6646,22.17232 c 3.0075,1.05222 6.0457,2.02193 9.0155,3.12723 l 16.2559,-20.39741 0.5071,-0.64798 0.2536,-0.78885 13.6076,-42.51338 0.7889,-2.50742 -1.7749,-1.94395 -32.5118,-35.07565 27.0462,-25.15868 2.5074,-2.3102 -1.5495,-3.04271 -23.7782,-46.71118 1.1551,-22.98934 c -2.773,-2.85418 -5.6259,-5.64637 -8.5928,-8.36745 z"
       id="use4221"
       style="fill:#000000;fill-opacity:1;stroke:none"
       inkscape:connector-curvature="0" />
    <use
       id="use4223"
       x="0"
       y="0"
       width="744.09448"
       height="1052.3622"
       xlink:href="#path4165" />
    <use
       id="use4225"
       x="0"
       y="0"
       width="744.09448"
       height="1052.3622"
       xlink:href="#path4160" />
    <use
       id="use4227"
       x="0"
       y="0"
       width="744.09448"
       height="1052.3622"
       xlink:href="#path4155" />
    <use
       id="use4229"
       x="0"
       y="0"
       width="744.09448"
       height="1052.3622"
       xlink:href="#path4153" />
    <path
       d="m 984.65854,-695.44738 -30.17351,74.01103 -1.83126,4.45136 4.53588,1.52136 38.87905,13.15689 -25.3559,38.85086 -1.49318,2.3102 1.35231,2.39473 28.06047,48.73965 -27.9196,7.32504 -4.62041,1.21145 1.49318,4.56406 8.36744,25.66579 c 3.42949,0.80097 6.84215,1.57563 10.28323,2.47925 l -8.59283,-26.3983 28.99019,-7.60677 5.7192,-1.49318 -2.9582,-5.12753 -29.61003,-51.44428 27.01813,-41.41462 3.1554,-4.87397 -5.4938,-1.85943 -39.83692,-13.4668 27.86331,-68.37638 c -2.57116,-1.57752 -5.15368,-3.14124 -7.83215,-4.62041 z"
       id="path4165"
       style="fill:#000000;fill-opacity:1;stroke:none"
       inkscape:connector-curvature="0" />
    <path
       d="m 940.53929,-710.82996 -23.18656,59.38914 -0.70433,1.80308 0.81702,1.71857 27.58158,59.55817 -20.00298,20.56644 -2.22569,2.28203 1.43684,2.87367 19.18596,38.40009 -17.32653,45.38705 c 3.09818,0.15951 6.23367,0.40572 9.40985,0.70433 l 17.0448,-44.71089 0.70433,-1.85943 -0.87337,-1.74674 -18.65067,-37.32951 19.91846,-20.48193 2.16934,-2.22568 -1.32414,-2.81732 -28.06052,-60.62875 23.46829,-60.12164 c -3.11162,-0.20865 -6.24742,-0.49023 -9.38168,-0.76068 z"
       id="path4160"
       style="fill:#000000;fill-opacity:1;stroke:none"
       inkscape:connector-curvature="0" />
    <path
       d="m 904.25219,-715.02776 -32.23016,62.23462 -1.38048,2.64828 1.8876,2.28203 30.48342,37.10412 -32.28651,51.92324 -2.47924,4.00059 4.08512,2.31021 45.61243,25.77848 -37.75211,49.35947 -0.19721,0.28173 c 3.94772,-0.24286 7.79473,-0.49013 11.8891,-0.7325 l 36.37161,-47.52821 3.1554,-4.11329 -4.50771,-2.56376 -46.03503,-26.03205 31.49765,-50.65543 1.71857,-2.73281 -2.05665,-2.50741 -30.65245,-37.30133 32.34285,-62.43184 c -3.14473,-0.4157 -6.30473,-0.8607 -9.4662,-1.32414 z"
       id="path4155"
       style="fill:#000000;fill-opacity:1;stroke:none"
       inkscape:connector-curvature="0" />
    <path
       d="m 869.09202,-721.00049 c -2.1257,2.77549 -4.25296,5.54164 -6.28263,8.33928 -2.81612,3.88167 -5.53529,7.79059 -8.14206,11.72005 -2.60676,3.92947 -5.12511,7.87768 -7.49407,11.86092 -2.36896,3.98325 -4.60253,8.01513 -6.70523,12.05814 -2.10269,4.04302 -4.05204,8.11841 -5.86002,12.22717 -1.80798,4.10878 -3.47367,8.24389 -4.95849,12.42439 l -0.7325,2.08482 0.92971,1.97212 23.91906,52.14862 -34.82209,39.21711 -4.33867,4.87397 5.57829,3.35261 38.31557,23.10203 -24.53887,33.44161 -2.25385,3.09905 2.14116,3.1554 7.60677,11.15659 c 3.98325,-0.25741 8.50604,-0.50302 12.59342,-0.76068 l -9.09994,-13.32592 25.77848,-35.132 3.49348,-4.78945 -5.07117,-3.0427 -37.80846,-22.79213 32.84997,-37.0196 2.33838,-2.64829 -1.46501,-3.21174 -24.42618,-53.24737 c 1.41645,-3.82602 2.98754,-7.64538 4.70493,-11.43833 1.71739,-3.79293 3.58381,-7.563 5.5783,-11.32563 1.99448,-3.76262 4.11942,-7.50603 6.36714,-11.24111 2.24773,-3.73508 4.62254,-7.44628 7.09965,-11.15659 2.47712,-3.7103 5.06499,-7.41195 7.74764,-11.10025 2.68264,-3.68829 5.44677,-7.37484 8.31109,-11.0439 0.18968,-0.24296 0.40122,-0.48961 0.59164,-0.7325 -3.96799,-0.70561 -7.95733,-1.45762 -11.94544,-2.22569 z"
       id="path4153"
       style="fill:#000000;fill-opacity:1;stroke:none"
       inkscape:connector-curvature="0" />
    <path
       d="m 652.67369,-469.30832 c -84.61864,-46.70049 -6.82255,-115.59568 -12.38694,-173.5435 69.55112,60.10192 53.83583,123.2982 32.43164,158.72785 -23.53074,4.35754 -20.0447,14.81565 -20.0447,14.81565 z"
       id="path3815"
       style="fill:#447821;fill-opacity:1;stroke:none"
       inkscape:connector-curvature="0" />
    <path
       d="m 651.68753,-614.89131 c 22.87168,28.42354 41.32028,73.89858 7.68572,119.77423 -27.12546,-25.48013 5.95508,-78.47468 -7.68572,-119.77423 z"
       id="path3821"
       style="fill:#cdde87;fill-opacity:1;stroke:none"
       inkscape:connector-curvature="0" />
    <path
       d="m 643.18921,-483.4588 c 69.08338,-102.46388 99.26328,-44.55757 154.17943,-68.8586 -13.31469,91.7008 -124.37862,98.73167 -154.17943,68.8586 z"
       id="path3045"
       style="fill:#447821;fill-opacity:1;stroke:none"
       inkscape:connector-curvature="0" />
    <path
       d="m 1080.076,-435.5651 c -130.45438,-114.48168 -523.43817,-0.74403 -691.06341,-58.4071 -11.53961,3.48972 -19.50679,48.68053 4.06254,52.54707 107.25896,35.19468 396.45046,-75.80557 665.99077,28.45384 0,0 12.2334,-16.27591 21.0101,-22.59381 z"
       id="path3867"
       style="fill:#447821;fill-opacity:1;stroke:none"
       inkscape:connector-curvature="0" />
    <path
       d="m 681.49655,-486.79233 c 34.52792,3.80197 89.28651,-17.84481 98.2847,-48.22062 -60.77642,9.7729 -53.78707,29.08551 -98.2847,48.22062 z"
       id="path3817"
       style="fill:#cdde87;stroke:none"
       inkscape:connector-curvature="0" />
    <path
       d="m 1020.9175,-326.54281 c 121.0643,-185.46024 -79.85097,-400.54259 -64.39595,-533.19817 -216.37027,154.55019 -175.80086,343.23022 -90.15428,431.45262"
       id="path3069"
       style="fill:#5f8dd3;fill-opacity:1;stroke:none"
       inkscape:connector-curvature="0" />
    <path
       d="m -73.741137,-37.087337 a 27.779197,27.779197 0 1 1 -55.558393,0 27.779196,27.779196 0 1 1 55.558393,0 z"
       transform="matrix(0.88594681,0.16721559,-0.19056637,0.94908403,869.73702,-480.04704)"
       id="path3898"
       style="fill:#000000;fill-opacity:0;stroke:#97aea0;stroke-width:12.52847862;stroke-miterlimit:4;stroke-opacity:1;stroke-dasharray:none"
       inkscape:connector-curvature="0" />
    <path
       d="m 841.75397,-458.96402 c 105.6093,86.29052 229.39223,123.40577 213.93733,198.10504 l -173.86902,-74.69927 -52.80465,-104.32138 z"
       id="path4261"
       style="fill:#f9dc76;fill-opacity:1;stroke:none"
       inkscape:connector-curvature="0" />
    <path
       d="M 719.07669,26.859928 C 826.61329,11.21145 864.09176,-11.83568 897.35469,-35.21165 832.42827,49.448488 723.54058,150.49677 653.16843,279.2939 660.02442,193.7395 719.07669,26.859928 719.07669,26.859928 z"
       id="path4267"
       style="fill:#214274;fill-opacity:1;stroke:none"
       inkscape:connector-curvature="0" />
    <path
       d="M 362.703,41.948554 C 473.53632,71.570672 540.43572,-12.14401 540.43572,-12.14401 478.52882,101.19279 362.703,41.948554 362.703,41.948554 z"
       id="path4281"
       style="fill:#214274;fill-opacity:1;stroke:none"
       inkscape:connector-curvature="0" />
    <path
       d="M 1010.2601,-36.24604 C 983.21382,133.75917 744.27262,178.83631 733.96926,332.09862 623.20829,776.43039 943.89995,901.35843 990.75215,919.67769 c 43.46925,13.74669 182.52315,9.85266 301.99225,66.61289 96.5337,61.92732 222.2097,-285.95843 47.3561,-316.9221 23.6781,41.89208 1.4864,75.6398 -74.677,72.85566 -122.0333,-21.85664 140.2471,-182.13905 -24.0144,-367.62427 -113.3368,-74.69922 -104.3996,-329.849907 -184.2505,-387.80623 9.0158,-14.71364 0.2668,-35.00054 0.4001,-52.50081 z"
       id="path4305"
       style="fill:#f9dc76;fill-opacity:1;stroke:none"
       inkscape:connector-curvature="0" />
    <path
       d="m 1000.5037,-83.83388 c 56.8411,-27.08857 87.5666,14.23985 87.5666,14.23985 16.4208,41.8908 -31.0281,56.45835 -31.0281,56.45835 6.1156,-11.08341 -48.5106,-14.61978 -48.5106,-14.61978 -21.16575,-19.48667 -8.0279,-56.07842 -8.0279,-56.07842 z"
       id="path4301"
       style="fill:#ff9955;fill-opacity:1;stroke:none"
       inkscape:connector-curvature="0" />
    <path
       d="m 1081.1955,-28.56962 c -29.6775,-28.86414 -53.2182,-26.97162 -53.2182,-26.97162 30.6252,8.88235 39.8637,38.5617 39.8637,38.5617 8.875,-3.42418 13.3545,-11.59008 13.3545,-11.59008 z"
       id="path4303"
       style="fill:#a05a2c;fill-opacity:1;stroke:none"
       inkscape:connector-curvature="0" />
    <path
       d="m 300.04567,-118.37649 c 20.0447,1.30726 17.43018,-12.63688 17.43018,-12.63688 5.6648,23.09498 -17.43018,12.63688 -17.43018,12.63688 z"
       id="path3823"
       style="fill:#214274;fill-opacity:1;stroke:none"
       inkscape:connector-curvature="0" />
    <path
       d="m 119.198,-276.99857 a 10.101526,10.101526 0 1 1 -20.203052,0 10.101526,10.101526 0 1 1 20.203052,0 z"
       transform="matrix(-0.5056834,0.79970518,0.76143814,0.48148573,853.57063,-716.91741)"
       id="path3005"
       style="fill:#97aea0;fill-opacity:1;fill-rule:nonzero;stroke:none"
       inkscape:connector-curvature="0" />
    <path
       d="m 119.198,-276.99857 a 10.101526,10.101526 0 1 1 -20.203052,0 10.101526,10.101526 0 1 1 20.203052,0 z"
       transform="matrix(-0.5056834,0.79970518,0.76143814,0.48148573,853.84048,-717.9462)"
       id="path3779"
       style="fill:#dbe3de;fill-opacity:1;fill-rule:nonzero;stroke:none"
       inkscape:connector-curvature="0" />
    <path
       d="m 601.35077,-771.12086 c -61.03446,-46.5102 16.21995,-86.07235 31.43325,-26.69574 19.09661,43.22538 51.24207,11.33896 51.22441,1.15029 6.61119,-27.4828 -29.72045,-14.21236 -13.61691,-4.10986 -3.25353,15.36181 -21.4502,4.87175 -25.18871,-2.73484 -33.88003,-95.99039 -131.71484,-3.43711 -54.2521,39.94924"
       id="path3007"
       style="fill:#dbe3de;fill-opacity:1;stroke:none"
       inkscape:connector-curvature="0" />
    <path
       d="m 590.70866,-764.13318 10.76947,-7.11206 104.15754,154.5095 50.32876,72.907 c 1.12638,-3.62377 2.85656,-7.09581 5.26231,-10.27098 8.07807,-10.66164 21.47734,-15.23974 34.32626,-13.03899 l -90.12532,-158.83539 11.59563,-6.0114 100.43144,177.04006 c 3.60986,4.04538 6.22614,8.70082 7.76542,13.63637 0.7111,0.65707 0.4874,1.25079 0.45716,1.5948 2.63913,10.019 0.93503,20.88517 -5.61914,29.53553 -11.66676,15.39808 -34.46302,18.10979 -50.64663,6.03108 -4.99948,-3.73138 -8.79092,-8.45327 -11.31848,-13.65381 L 638.72511,-691.33834 z m 180.66484,219.06107 c -4.26934,6.29155 -4.74925,14.09407 -1.88844,20.8438 l 5.35799,7.75108 c 0.74061,0.71457 1.52231,1.40701 2.37291,2.0418 10.33245,7.7117 24.55687,5.9931 32.00552,-3.83781 4.07555,-5.37903 5.20834,-11.98857 3.72017,-18.1569 l -6.30497,-11.15237 c -0.80392,-0.79514 -1.68341,-1.53091 -2.62023,-2.23015 -10.33244,-7.71166 -24.52808,-6.03858 -31.97675,3.79235 -0.23278,0.30721 -0.4527,0.63283 -0.66656,0.9479 z"
       id="path15"
       style="font-size:medium;font-style:normal;font-variant:normal;font-weight:normal;font-stretch:normal;text-indent:0;text-align:start;text-decoration:none;line-height:normal;letter-spacing:normal;word-spacing:normal;text-transform:none;direction:ltr;block-progression:tb;writing-mode:lr-tb;text-anchor:start;baseline-shift:baseline;color:#000000;fill:#dbe3de;fill-opacity:1;fill-rule:nonzero;stroke:none;stroke-width:15;marker:none;visibility:visible;display:inline;overflow:visible;enable-background:accumulate;font-family:Sans;-inkscape-font-specification:Sans"
       inkscape:connector-curvature="0" />
    <path
       d="m 695.85366,-709.27141 c 10.81699,22.49436 31.66756,7.22372 31.0247,-16.15003 l -16.24209,-24.45889 -14.90681,16.54705 z"
       id="path3001"
       style="fill:#2a1d16;fill-opacity:1;stroke:none"
       inkscape:connector-curvature="0" />
  </g>
</svg>
